<svg width="20" height="14" viewBox="0 0 20 14" fill="none" xmlns="http://www.w3.org/2000/svg">
   <path
      d="M18.6518 0.259277C19.036 0.259277 19.3417 0.406191 19.5687 0.700018C19.8133 0.976561 19.9006 1.30496 19.8307 1.68521L17.5777 12.3148C17.4903 12.7296 17.272 13.0753 16.9227 13.3519C16.5908 13.6111 16.2066 13.7407 15.77 13.7407H12.9929C12.5563 13.7407 12.172 13.6025 11.8402 13.3259C11.5258 13.0494 11.3337 12.7037 11.2638 12.2889L9.95389 4.43335C9.95389 4.41607 9.94516 4.40743 9.92769 4.40743C9.91022 4.40743 9.90149 4.41607 9.90149 4.43335L8.59157 12.2889C8.5217 12.7037 8.32085 13.0494 7.989 13.3259C7.67462 13.6025 7.29911 13.7407 6.86247 13.7407H4.08542C3.64878 13.7407 3.25581 13.6111 2.90649 13.3519C2.57464 13.0753 2.36506 12.7296 2.27773 12.3148L0.0246574 1.68521C-0.0452053 1.30496 0.0333903 0.976561 0.260444 0.700018C0.504963 0.406191 0.819345 0.259277 1.20359 0.259277H3.11608C3.53526 0.259277 3.90204 0.397549 4.21642 0.674093C4.54826 0.950635 4.74039 1.29632 4.79278 1.71113L5.76213 9.82595C5.76213 9.84323 5.77086 9.85187 5.78833 9.85187C5.80579 9.85187 5.81453 9.84323 5.81453 9.82595L7.01966 1.71113C7.08952 1.29632 7.28164 0.950635 7.59602 0.674093C7.91041 0.397549 8.28592 0.259277 8.72256 0.259277H11.2376C11.6743 0.259277 12.0498 0.397549 12.3642 0.674093C12.6785 0.950635 12.8707 1.29632 12.9405 1.71113L14.1456 9.82595C14.1456 9.84323 14.1544 9.85187 14.1718 9.85187C14.1893 9.85187 14.198 9.84323 14.198 9.82595L15.1674 1.71113C15.2198 1.29632 15.4032 0.950635 15.7176 0.674093C16.0494 0.397549 16.4249 0.259277 16.8441 0.259277H18.6518Z"
   />

   <style>
      @media (prefers-color-scheme: dark) {
         path {
            fill: #ffffff;
         }
      }

      @media (prefers-color-scheme: light) {
         path {
            fill: #000000;
         }
      }
   </style>
</svg>
